Coordinates
version=1
nRows=11
nColumns=63
inDegrees=yes

Units are S.I. units (second, meters, Newtons, ...)
If the header above contains a line with 'inDegrees', this indicates whether rotational values are in degrees (yes) or radians (no).

endheader
time	pelvis_tilt	pelvis_list	pelvis_rotation	pelvis_tx	pelvis_ty	pelvis_tz	hip_flexion_r	hip_adduction_r	hip_rotation_r	knee_angle_r	knee_angle_r_beta	ankle_angle_r	subtalar_angle_r	mtp_angle_r	hip_flexion_l	hip_adduction_l	hip_rotation_l	knee_angle_l	knee_angle_l_beta	ankle_angle_l	subtalar_angle_l	mtp_angle_l	L5_S1_Flex_Ext	L5_S1_Lat_Bending	L5_S1_axial_rotation	L4_L5_Flex_Ext	L4_L5_Lat_Bending	L4_L5_axial_rotation	L3_L4_Flex_Ext	L3_L4_Lat_Bending	L3_L4_axial_rotation	L2_L3_Flex_Ext	L2_L3_Lat_Bending	L2_L3_axial_rotation	L1_L2_Flex_Ext	L1_L2_Lat_Bending	L1_L2_axial_rotation	L1_T12_Flex_Ext	L1_T12_Lat_Bending	L1_T12_axial_rotation	Abs_r3	Abs_r2	Abs_r1	Abs_t1	Abs_t2	neck_flexion	neck_bending	neck_rotation	arm_flex_r	arm_add_r	arm_rot_r	elbow_flex_r	pro_sup_r	wrist_flex_r	wrist_dev_r	arm_flex_l	arm_add_l	arm_rot_l	elbow_flex_l	pro_sup_l	wrist_flex_l	wrist_dev_l
      1.26666667	      0.46226211	     -6.44129025	     97.17590581	      0.28043564	      0.86607915	      0.75399693	      2.78496754	      0.90319083	     10.19945883	      2.28933641	      0.03995646	     22.22701335	     -4.41679278	      0.00000000	      3.53645700	     -1.83666082	      8.96867769	      1.19253420	      0.02081365	     23.68962939	     -7.23309546	      0.00000000	      0.33757784	      0.35921344	     -1.12425108	      0.62691580	      0.47775388	     -1.19451678	      0.55460663	      0.87339157	     -1.19451678	      0.38581771	      0.87339157	     -0.98371970	      0.31347478	      0.73250805	     -0.91345401	      0.19289198	      0.55642162	     -0.84318831	      2.41128472	      4.06349431	     -6.25274725	      0.00000000	      0.00000000	     28.12157734	      0.25511914	      0.44544026	      7.08754495	    -12.93468071	     51.28172348	     55.39203909	     37.17767129	      2.52434865	     11.04889066	      2.15082331	    -10.10271626	     29.04827957	     55.39041002	     63.55908817	     22.62846788	     11.48864694
      1.28333333	      0.67226127	     -6.60379587	     97.22422862	      0.28014443	      0.86587727	      0.75375076	      3.13809354	      1.12898941	      9.93189833	      2.47653514	      0.04322369	     22.58584444	     -4.15309788	      0.00000000	      3.88461690	     -1.97001605	      8.75366695	      1.48823869	      0.02597467	     24.13719293	     -7.09767195	      0.00000000	      0.35527160	      0.39603901	     -1.15987868	      0.65977490	      0.52673189	     -1.23237110	      0.58367572	      0.96292926	     -1.23237110	      0.40603992	      0.96292926	     -1.01489385	      0.32990521	      0.80760276	     -0.94240143	      0.20300219	      0.61346443	     -0.86990901	      2.53766954	      4.48007254	     -6.45089726	      0.00000000	      0.00000000	     28.14277662	     -0.50059103	      0.24474817	      6.69950704	    -12.60771249	     50.28986198	     54.72529608	     43.08896756	      2.05493589	     10.13961717	      2.03605141	     -9.90859461	     29.30122510	     54.74052512	     62.67221208	     22.76346430	     12.14970233
      1.30000000	      0.75291880	     -6.68275362	     97.20518628	      0.27996989	      0.86572019	      0.75351778	      3.38205712	      1.23681982	      9.41847488	      2.68584510	      0.04687684	     22.96086705	     -3.48605065	      0.00000000	      4.11474357	     -1.98048642	      8.06346254	      1.79543272	      0.03133621	     24.51969692	     -6.65461292	      0.00000000	      0.36028566	      0.41338378	     -1.16294833	      0.66908650	      0.54980043	     -1.23563260	      0.59191331	      1.00510133	     -1.23563260	      0.41177048	      1.00510133	     -1.01757979	      0.33456126	      0.84297221	     -0.94489552	      0.20586723	      0.64033148	     -0.87221125	      2.57348443	      4.67628003	     -6.46796973	      0.00000000	      0.00000000	     28.16738304	     -1.04284531	     -0.21024027	      6.78578975	    -12.35725950	     50.29373082	     53.66892702	     47.94361461	      2.03390163	      8.67500618	      2.15873638	     -9.81501352	     29.89020599	     54.00502759	     63.17897005	     22.70487523	     12.05663013
      1.31666667	      0.80202174	     -6.75129123	     97.15666518	      0.27992678	      0.86552837	      0.75344452	      3.64025331	      1.32928937	      9.09322754	      2.97313974	      0.05189108	     23.20005008	     -3.11709498	      0.00000000	      4.39217792	     -1.95262037	      7.40030198	      2.25753459	      0.03940141	     24.81249884	     -6.48680221	      0.00000000	      0.36086771	      0.42141689	     -1.14011662	      0.67016742	      0.56048446	     -1.21137390	      0.59286956	      1.02463302	     -1.21137390	      0.41243570	      1.02463302	     -0.99760204	      0.33510175	      0.85935332	     -0.92634475	      0.20619981	      0.65277476	     -0.85508746	      2.57764195	      4.76715212	     -6.34098658	      0.00000000	      0.00000000	     28.18752450	     -1.74589166	     -1.23405013	      7.20984692	    -12.21765374	     51.24096702	     52.49187047	     51.67169878	      1.40694810	      6.25310597	      2.41319528	     -9.74852758	     30.56232845	     53.32862943	     64.16085112	     22.49251713	     11.77565456
      1.33333333	      0.78000766	     -6.82743273	     97.13216752	      0.27996154	      0.86539045	      0.75353816	      3.95874144	      1.32892799	      7.95240110	      3.41915245	      0.05967547	     23.72026896	     -1.67954032	      0.00000000	      4.81749869	     -1.87019724	      5.67945750	      3.03512733	      0.05297297	     25.42344914	     -4.90520722	      0.00000000	      0.35485485	      0.42252996	     -1.10314572	      0.65900093	      0.56196485	     -1.17209233	      0.58299103	      1.02733935	     -1.17209233	      0.40556360	      1.02733935	     -0.96525250	      0.32951821	      0.86162310	     -0.89630590	      0.20276406	      0.65449891	     -0.82735929	      2.53469268	      4.77974342	     -6.13536555	      0.00000000	      0.00000000	     28.20298530	     -2.17069117	     -1.81464619	      7.17915160	    -11.73558006	     50.06900435	     51.22249360	     60.05330564	      1.95293831	      4.93875986	      2.77137372	     -9.65154783	     31.08598592	     52.54951580	     67.16402002	     22.77589136	     10.25182460
      1.35000000	      0.74605471	     -6.91568907	     97.09027301	      0.28009717	      0.86529458	      0.75381166	      4.31963447	      1.30739062	      6.83862300	      3.91906980	      0.06840067	     24.20835773	     -0.35134807	      0.00000000	      5.35028190	     -1.79750643	      3.83670998	      4.00389031	      0.06988107	     26.11616331	     -3.17620998	      0.00000000	      0.34275732	      0.41777712	     -1.06062337	      0.63653463	      0.55564357	     -1.12691233	      0.56311601	      1.01578328	     -1.12691233	      0.39173735	      1.01578328	     -0.92804545	      0.31828445	      0.85193110	     -0.86175649	      0.19585153	      0.64713675	     -0.79546753	      2.44828129	      4.72597830	     -5.89886899	      0.00000000	      0.00000000	     28.20852278	     -2.67477855	     -2.82761665	      7.40722423	    -11.42506814	     49.84363571	     50.19261441	     65.21914427	      1.69956908	      3.41359368	      3.09796701	     -9.57431002	     31.37133703	     51.98004651	     70.38194449	     23.04813309	      9.18147065
      1.36666667	      0.71831348	     -6.94260505	     97.05478553	      0.28022106	      0.86544702	      0.75433345	      4.57080657	      1.31411830	      6.68165215	      4.29640406	      0.07498640	     24.25355434	     -0.44915484	      0.00000000	      5.85744154	     -1.69847269	      3.39678215	      4.98898841	      0.08707427	     26.34711547	     -3.46745127	      0.00000000	      0.31324539	      0.41958482	     -1.05375902	      0.58172801	      0.55804780	     -1.11961896	      0.51463085	      1.02017852	     -1.11961896	      0.35800815	      1.02017852	     -0.92203914	      0.29087967	      0.85561736	     -0.85617920	      0.17898841	      0.64993688	     -0.79031926	      2.23748048	      4.74642735	     -5.86069154	      0.00000000	      0.00000000	     28.20139579	     -2.77165257	     -3.06157086	      7.83392535	    -11.18666215	     50.20365138	     49.42877426	     65.85948194	      1.31978231	      3.22495489	      3.37026048	     -9.57478202	     31.76945014	     51.58550472	     71.00425524	     22.77395940	      9.32820834
      1.38333333	      0.71007670	     -7.09690149	     97.07080814	      0.28030261	      0.86526095	      0.75442221	      4.97538801	      1.28792383	      5.62109384	      4.78203536	      0.08346226	     24.74827979	      0.64934455	      0.00000000	      6.59338373	     -1.67085024	      1.99574437	      6.19415082	      0.10810833	     27.24599233	     -2.10717271	      0.00000000	      0.31000105	      0.41966043	     -1.03798639	      0.57570295	      0.55814837	     -1.10286054	      0.50930073	      1.02036237	     -1.10286054	      0.35430020	      1.02036237	     -0.90823809	      0.28786698	      0.85577155	     -0.84336394	      0.17713460	      0.65005400	     -0.77848979	      2.21430651	      4.74728270	     -5.77296890	      0.00000000	      0.00000000	     28.19899746	     -2.99705643	     -3.62348784	      7.78668964	    -11.01656096	     49.48326164	     49.03884270	     71.95385387	      1.10826167	      2.14213429	      3.41879422	     -9.59952849	     31.69192909	     51.43313362	     75.77771993	     22.89590898	      7.65222108
      1.40000000	      0.76431348	     -7.03339291	     97.31526407	      0.28014678	      0.86540513	      0.75466938	      5.04112695	      1.32042612	      4.33720177	      5.02049941	      0.08762424	     25.09605682	      1.81279376	      0.00000000	      7.18199714	     -1.71545676	      1.22771592	      7.45807737	      0.13016801	     28.07526781	     -1.27733721	      0.00000000	      0.27404726	      0.43259864	     -1.09634579	      0.50893317	      0.57535619	     -1.16486740	      0.45023225	      1.05182033	     -1.16486740	      0.31320862	      1.05182033	     -0.95930257	      0.25448029	      0.88215514	     -0.89078096	      0.15659061	      0.67009529	     -0.82225934	      1.95749221	      4.89364231	     -6.09754639	      0.00000000	      0.00000000	     28.18682270	     -2.96217991	     -3.53120111	      8.02578597	    -11.02198011	     50.04223339	     48.95484346	     69.80476751	      0.73667579	      2.65090610	      3.57977801	    -10.01269312	     32.97045208	     51.61649219	     73.29414518	     21.33850572	      8.20792283
      1.41666667	      0.76152688	     -7.02645372	     97.39684227	      0.28015999	      0.86564313	      0.75511437	      5.15020283	      1.29967742	      3.59019635	      5.18463171	      0.09048889	     25.24301978	      2.48398227	      0.00000000	      7.76196955	     -1.68804320	      0.79151881	      8.58017801	      0.14975236	     28.47577767	     -1.20124940	      0.00000000	      0.24697680	      0.43785570	     -1.09628302	      0.45866062	      0.58234808	     -1.16480070	      0.40575819	      1.06460234	     -1.16480070	      0.28226979	      1.06460234	     -0.95924764	      0.22934266	      0.89287533	     -0.89072995	      0.14112255	      0.67823847	     -0.82221226	      1.76413062	      4.95311120	     -6.09719725	      0.00000000	      0.00000000	     28.16528509	     -3.04351352	     -3.59795151	      8.00497827	    -11.01146101	     49.98314434	     48.95986181	     69.61368222	      0.32470499	      2.75929914	      3.88364492	    -10.11470287	     33.71943477	     51.43205835	     72.39328348	     20.56972388	      8.84054669
      1.43333333	      0.79481040	     -7.23614482	     97.19477429	      0.28049806	      0.86524244	      0.75527863	      5.59935383	      1.35865962	      4.28505084	      5.59877639	      0.09771708	     25.37630522	      1.59235362	      0.00000000	      8.58363533	     -1.56494723	      2.15953516	      9.87277676	      0.17231246	     28.48384371	     -4.06468735	      0.00000000	      0.25899703	      0.44315859	     -1.00667736	      0.48098338	      0.58940092	     -1.06959470	      0.42550621	      1.07749579	     -1.06959470	      0.29600770	      1.07749579	     -0.88084269	      0.24050464	      0.90368899	     -0.81792536	      0.14799090	      0.68645265	     -0.75500802	      1.84998986	      5.01309857	     -5.59883748	      0.00000000	      0.00000000	     28.16634523	     -3.40878779	     -4.17971742	      6.78721932	    -10.60895048	     46.42995712	     49.39447495	     75.58139288	      1.24198560	      4.06732288	      3.68207035	     -9.47793297	     31.83985546	     51.11412774	     76.18628148	     22.75624458	      9.23498813
